<mxfile host="app.diagrams.net" modified="2023-04-17T08:07:41.895Z" agent="Mozilla/5.0 (Macintosh; Intel Mac OS X 10_15_7) AppleWebKit/537.36 (KHTML, like Gecko) Chrome/112.0.0.0 Safari/537.36" etag="IqRAOhT5Qm4F7MlL4m0d" version="21.1.8" type="github">
  <diagram id="C5RBs43oDa-KdzZeNtuy" name="Page-1">
    <mxGraphModel dx="659" dy="875" grid="1" gridSize="10" guides="1" tooltips="1" connect="1" arrows="1" fold="1" page="1" pageScale="1" pageWidth="2339" pageHeight="3300" math="0" shadow="0">
      <root>
        <mxCell id="WIyWlLk6GJQsqaUBKTNV-0" />
        <mxCell id="WIyWlLk6GJQsqaUBKTNV-1" parent="WIyWlLk6GJQsqaUBKTNV-0" />
        <mxCell id="Cw7nx5koGpYLiIqTJ3Ks-4" value="" style="edgeStyle=orthogonalEdgeStyle;rounded=0;orthogonalLoop=1;jettySize=auto;html=1;" edge="1" parent="WIyWlLk6GJQsqaUBKTNV-1" source="Cw7nx5koGpYLiIqTJ3Ks-2" target="Cw7nx5koGpYLiIqTJ3Ks-3">
          <mxGeometry relative="1" as="geometry" />
        </mxCell>
        <mxCell id="Cw7nx5koGpYLiIqTJ3Ks-7" value="" style="edgeStyle=orthogonalEdgeStyle;rounded=0;orthogonalLoop=1;jettySize=auto;html=1;" edge="1" parent="WIyWlLk6GJQsqaUBKTNV-1" source="Cw7nx5koGpYLiIqTJ3Ks-2" target="Cw7nx5koGpYLiIqTJ3Ks-6">
          <mxGeometry relative="1" as="geometry" />
        </mxCell>
        <mxCell id="Cw7nx5koGpYLiIqTJ3Ks-2" value="initMixin()" style="rounded=0;whiteSpace=wrap;html=1;" vertex="1" parent="WIyWlLk6GJQsqaUBKTNV-1">
          <mxGeometry x="460" y="110" width="120" height="60" as="geometry" />
        </mxCell>
        <mxCell id="Cw7nx5koGpYLiIqTJ3Ks-3" value="vue.prototype.init= function(){}" style="rounded=0;whiteSpace=wrap;html=1;" vertex="1" parent="WIyWlLk6GJQsqaUBKTNV-1">
          <mxGeometry x="710" y="110" width="210" height="60" as="geometry" />
        </mxCell>
        <mxCell id="Cw7nx5koGpYLiIqTJ3Ks-9" value="" style="edgeStyle=orthogonalEdgeStyle;rounded=0;orthogonalLoop=1;jettySize=auto;html=1;" edge="1" parent="WIyWlLk6GJQsqaUBKTNV-1" source="Cw7nx5koGpYLiIqTJ3Ks-6" target="Cw7nx5koGpYLiIqTJ3Ks-8">
          <mxGeometry relative="1" as="geometry" />
        </mxCell>
        <mxCell id="Cw7nx5koGpYLiIqTJ3Ks-11" value="" style="edgeStyle=orthogonalEdgeStyle;rounded=0;orthogonalLoop=1;jettySize=auto;html=1;" edge="1" parent="WIyWlLk6GJQsqaUBKTNV-1" source="Cw7nx5koGpYLiIqTJ3Ks-6" target="Cw7nx5koGpYLiIqTJ3Ks-10">
          <mxGeometry relative="1" as="geometry" />
        </mxCell>
        <mxCell id="Cw7nx5koGpYLiIqTJ3Ks-6" value="stateMixin()" style="rounded=0;whiteSpace=wrap;html=1;" vertex="1" parent="WIyWlLk6GJQsqaUBKTNV-1">
          <mxGeometry x="460" y="250" width="120" height="60" as="geometry" />
        </mxCell>
        <mxCell id="Cw7nx5koGpYLiIqTJ3Ks-8" value="初始化$set , $delet，$data , $props , $watch" style="rounded=0;whiteSpace=wrap;html=1;" vertex="1" parent="WIyWlLk6GJQsqaUBKTNV-1">
          <mxGeometry x="710" y="250" width="210" height="60" as="geometry" />
        </mxCell>
        <mxCell id="Cw7nx5koGpYLiIqTJ3Ks-13" value="" style="edgeStyle=orthogonalEdgeStyle;rounded=0;orthogonalLoop=1;jettySize=auto;html=1;" edge="1" parent="WIyWlLk6GJQsqaUBKTNV-1" source="Cw7nx5koGpYLiIqTJ3Ks-10" target="Cw7nx5koGpYLiIqTJ3Ks-12">
          <mxGeometry relative="1" as="geometry" />
        </mxCell>
        <mxCell id="Cw7nx5koGpYLiIqTJ3Ks-15" value="" style="edgeStyle=orthogonalEdgeStyle;rounded=0;orthogonalLoop=1;jettySize=auto;html=1;" edge="1" parent="WIyWlLk6GJQsqaUBKTNV-1" source="Cw7nx5koGpYLiIqTJ3Ks-10" target="Cw7nx5koGpYLiIqTJ3Ks-14">
          <mxGeometry relative="1" as="geometry" />
        </mxCell>
        <mxCell id="Cw7nx5koGpYLiIqTJ3Ks-10" value="eventMixin()" style="whiteSpace=wrap;html=1;rounded=0;" vertex="1" parent="WIyWlLk6GJQsqaUBKTNV-1">
          <mxGeometry x="460" y="390" width="120" height="60" as="geometry" />
        </mxCell>
        <mxCell id="Cw7nx5koGpYLiIqTJ3Ks-12" value="初始化$on , $once , $off , $emit" style="whiteSpace=wrap;html=1;rounded=0;" vertex="1" parent="WIyWlLk6GJQsqaUBKTNV-1">
          <mxGeometry x="710" y="390" width="210" height="60" as="geometry" />
        </mxCell>
        <mxCell id="Cw7nx5koGpYLiIqTJ3Ks-17" value="" style="edgeStyle=orthogonalEdgeStyle;rounded=0;orthogonalLoop=1;jettySize=auto;html=1;" edge="1" parent="WIyWlLk6GJQsqaUBKTNV-1" source="Cw7nx5koGpYLiIqTJ3Ks-14" target="Cw7nx5koGpYLiIqTJ3Ks-16">
          <mxGeometry relative="1" as="geometry" />
        </mxCell>
        <mxCell id="Cw7nx5koGpYLiIqTJ3Ks-19" value="" style="edgeStyle=orthogonalEdgeStyle;rounded=0;orthogonalLoop=1;jettySize=auto;html=1;" edge="1" parent="WIyWlLk6GJQsqaUBKTNV-1" source="Cw7nx5koGpYLiIqTJ3Ks-14" target="Cw7nx5koGpYLiIqTJ3Ks-18">
          <mxGeometry relative="1" as="geometry" />
        </mxCell>
        <mxCell id="Cw7nx5koGpYLiIqTJ3Ks-14" value="lifecycleMixin" style="whiteSpace=wrap;html=1;rounded=0;" vertex="1" parent="WIyWlLk6GJQsqaUBKTNV-1">
          <mxGeometry x="460" y="530" width="120" height="60" as="geometry" />
        </mxCell>
        <mxCell id="Cw7nx5koGpYLiIqTJ3Ks-16" value="初始化 _update, $forceUpdate, $destory" style="whiteSpace=wrap;html=1;rounded=0;" vertex="1" parent="WIyWlLk6GJQsqaUBKTNV-1">
          <mxGeometry x="720" y="530" width="200" height="60" as="geometry" />
        </mxCell>
        <mxCell id="Cw7nx5koGpYLiIqTJ3Ks-21" value="" style="edgeStyle=orthogonalEdgeStyle;rounded=0;orthogonalLoop=1;jettySize=auto;html=1;" edge="1" parent="WIyWlLk6GJQsqaUBKTNV-1" source="Cw7nx5koGpYLiIqTJ3Ks-18" target="Cw7nx5koGpYLiIqTJ3Ks-20">
          <mxGeometry relative="1" as="geometry" />
        </mxCell>
        <mxCell id="Cw7nx5koGpYLiIqTJ3Ks-18" value="renderMixin" style="whiteSpace=wrap;html=1;rounded=0;" vertex="1" parent="WIyWlLk6GJQsqaUBKTNV-1">
          <mxGeometry x="460" y="670" width="120" height="60" as="geometry" />
        </mxCell>
        <mxCell id="Cw7nx5koGpYLiIqTJ3Ks-20" value="初始化$nextTick,&amp;nbsp; _render" style="whiteSpace=wrap;html=1;rounded=0;" vertex="1" parent="WIyWlLk6GJQsqaUBKTNV-1">
          <mxGeometry x="720" y="670" width="200" height="60" as="geometry" />
        </mxCell>
        <mxCell id="Cw7nx5koGpYLiIqTJ3Ks-24" value="" style="edgeStyle=orthogonalEdgeStyle;rounded=0;orthogonalLoop=1;jettySize=auto;html=1;" edge="1" parent="WIyWlLk6GJQsqaUBKTNV-1" source="Cw7nx5koGpYLiIqTJ3Ks-22" target="Cw7nx5koGpYLiIqTJ3Ks-23">
          <mxGeometry relative="1" as="geometry" />
        </mxCell>
        <mxCell id="Cw7nx5koGpYLiIqTJ3Ks-22" value="new Vue()" style="rounded=0;whiteSpace=wrap;html=1;" vertex="1" parent="WIyWlLk6GJQsqaUBKTNV-1">
          <mxGeometry x="460" y="830" width="120" height="60" as="geometry" />
        </mxCell>
        <mxCell id="Cw7nx5koGpYLiIqTJ3Ks-26" value="" style="edgeStyle=orthogonalEdgeStyle;rounded=0;orthogonalLoop=1;jettySize=auto;html=1;" edge="1" parent="WIyWlLk6GJQsqaUBKTNV-1" source="Cw7nx5koGpYLiIqTJ3Ks-23" target="Cw7nx5koGpYLiIqTJ3Ks-25">
          <mxGeometry relative="1" as="geometry" />
        </mxCell>
        <mxCell id="Cw7nx5koGpYLiIqTJ3Ks-23" value="this.__init(options)" style="rounded=0;whiteSpace=wrap;html=1;" vertex="1" parent="WIyWlLk6GJQsqaUBKTNV-1">
          <mxGeometry x="460" y="970" width="120" height="60" as="geometry" />
        </mxCell>
        <mxCell id="Cw7nx5koGpYLiIqTJ3Ks-28" value="" style="edgeStyle=orthogonalEdgeStyle;rounded=0;orthogonalLoop=1;jettySize=auto;html=1;" edge="1" parent="WIyWlLk6GJQsqaUBKTNV-1" source="Cw7nx5koGpYLiIqTJ3Ks-25" target="Cw7nx5koGpYLiIqTJ3Ks-27">
          <mxGeometry relative="1" as="geometry" />
        </mxCell>
        <mxCell id="Cw7nx5koGpYLiIqTJ3Ks-25" value="合并每个组件上的 options 选项" style="rounded=0;whiteSpace=wrap;html=1;" vertex="1" parent="WIyWlLk6GJQsqaUBKTNV-1">
          <mxGeometry x="460" y="1110" width="120" height="60" as="geometry" />
        </mxCell>
        <mxCell id="Cw7nx5koGpYLiIqTJ3Ks-30" value="" style="edgeStyle=orthogonalEdgeStyle;rounded=0;orthogonalLoop=1;jettySize=auto;html=1;" edge="1" parent="WIyWlLk6GJQsqaUBKTNV-1" source="Cw7nx5koGpYLiIqTJ3Ks-27" target="Cw7nx5koGpYLiIqTJ3Ks-29">
          <mxGeometry relative="1" as="geometry" />
        </mxCell>
        <mxCell id="Cw7nx5koGpYLiIqTJ3Ks-32" value="" style="edgeStyle=orthogonalEdgeStyle;rounded=0;orthogonalLoop=1;jettySize=auto;html=1;" edge="1" parent="WIyWlLk6GJQsqaUBKTNV-1" source="Cw7nx5koGpYLiIqTJ3Ks-27" target="Cw7nx5koGpYLiIqTJ3Ks-31">
          <mxGeometry relative="1" as="geometry" />
        </mxCell>
        <mxCell id="Cw7nx5koGpYLiIqTJ3Ks-27" value="initifeCycle" style="rounded=0;whiteSpace=wrap;html=1;" vertex="1" parent="WIyWlLk6GJQsqaUBKTNV-1">
          <mxGeometry x="460" y="1250" width="120" height="60" as="geometry" />
        </mxCell>
        <mxCell id="Cw7nx5koGpYLiIqTJ3Ks-29" value="判断有没有父级组件，如果有把自己push到父组件的$children中&lt;br&gt;将$parent , $root , $children=[] ,$refs = {} 绑定到vm 上，并初始化一些状态&amp;nbsp;" style="rounded=0;whiteSpace=wrap;html=1;" vertex="1" parent="WIyWlLk6GJQsqaUBKTNV-1">
          <mxGeometry x="725" y="1165" width="190" height="230" as="geometry" />
        </mxCell>
        <mxCell id="Cw7nx5koGpYLiIqTJ3Ks-33" style="edgeStyle=orthogonalEdgeStyle;rounded=0;orthogonalLoop=1;jettySize=auto;html=1;" edge="1" parent="WIyWlLk6GJQsqaUBKTNV-1" source="Cw7nx5koGpYLiIqTJ3Ks-31" target="Cw7nx5koGpYLiIqTJ3Ks-34">
          <mxGeometry relative="1" as="geometry">
            <mxPoint x="710" y="1510" as="targetPoint" />
          </mxGeometry>
        </mxCell>
        <mxCell id="Cw7nx5koGpYLiIqTJ3Ks-36" value="" style="edgeStyle=orthogonalEdgeStyle;rounded=0;orthogonalLoop=1;jettySize=auto;html=1;" edge="1" parent="WIyWlLk6GJQsqaUBKTNV-1" source="Cw7nx5koGpYLiIqTJ3Ks-31" target="Cw7nx5koGpYLiIqTJ3Ks-35">
          <mxGeometry relative="1" as="geometry" />
        </mxCell>
        <mxCell id="Cw7nx5koGpYLiIqTJ3Ks-31" value="initEvent" style="rounded=0;whiteSpace=wrap;html=1;" vertex="1" parent="WIyWlLk6GJQsqaUBKTNV-1">
          <mxGeometry x="460" y="1480" width="120" height="60" as="geometry" />
        </mxCell>
        <mxCell id="Cw7nx5koGpYLiIqTJ3Ks-34" value="初始化组件上绑定的事件，包括$listeners,等自定义事件" style="rounded=0;whiteSpace=wrap;html=1;" vertex="1" parent="WIyWlLk6GJQsqaUBKTNV-1">
          <mxGeometry x="720" y="1480" width="200" height="60" as="geometry" />
        </mxCell>
        <mxCell id="Cw7nx5koGpYLiIqTJ3Ks-38" value="" style="edgeStyle=orthogonalEdgeStyle;rounded=0;orthogonalLoop=1;jettySize=auto;html=1;" edge="1" parent="WIyWlLk6GJQsqaUBKTNV-1" source="Cw7nx5koGpYLiIqTJ3Ks-35" target="Cw7nx5koGpYLiIqTJ3Ks-37">
          <mxGeometry relative="1" as="geometry" />
        </mxCell>
        <mxCell id="Cw7nx5koGpYLiIqTJ3Ks-35" value="initEvent" style="rounded=0;whiteSpace=wrap;html=1;" vertex="1" parent="WIyWlLk6GJQsqaUBKTNV-1">
          <mxGeometry x="460" y="1620" width="120" height="60" as="geometry" />
        </mxCell>
        <mxCell id="Cw7nx5koGpYLiIqTJ3Ks-37" value="initEvent" style="rounded=0;whiteSpace=wrap;html=1;" vertex="1" parent="WIyWlLk6GJQsqaUBKTNV-1">
          <mxGeometry x="720" y="1620" width="200" height="60" as="geometry" />
        </mxCell>
      </root>
    </mxGraphModel>
  </diagram>
</mxfile>
